# xmcd CD database file
#
# Track frame offsets:
#	150
#	25869
#	42732
#	68121
#	87174
#	98070
#	119298
#	139397
#	161711
#	178646
#
# Disc length: 2688 seconds
#
# Revision: 0
# Processed by: cddbd v1.5.1PL0 Copyright (c) Steve Scherf et al.
# Submitted via: CDex 1.51
#
DISCID=880a7e0a
DTITLE=Vlad - Vladosphere
DYEAR=2004
DGENRE=Jazz
TTITLE0=Vladosphere
TTITLE1=Close To The Edge
TTITLE2=Life Of My Heart
TTITLE3=Dance
TTITLE4=Maybe...
TTITLE5=Bleu
TTITLE6=Little Star
TTITLE7=What If...
TTITLE8=NYC
TTITLE9=Color My Feelings
EXTD=YEAR: 2004
EXTT0=
EXTT1=
EXTT2=
EXTT3=
EXTT4=
EXTT5=
EXTT6=
EXTT7=
EXTT8=
EXTT9=
PLAYORDER=
